<svg width="23" height="22" viewBox="0 0 23 22" fill="none" xmlns="http://www.w3.org/2000/svg">
<path d="M11.2793 0C5.04748 0 0 5.0503 0 11.2793C0 16.2638 3.23152 20.4907 7.71221 21.9805C8.27618 22.0867 8.48296 21.738 8.48296 21.4382C8.48296 21.1703 8.47357 20.4606 8.46887 19.5207C5.33134 20.2012 4.66962 18.0074 4.66962 18.0074C4.15642 16.7056 3.4148 16.3578 3.4148 16.3578C2.39309 15.6585 3.49376 15.6726 3.49376 15.6726C4.62639 15.7515 5.22137 16.8343 5.22137 16.8343C6.22711 18.5591 7.86166 18.061 8.50646 17.7724C8.60798 17.043 8.89842 16.5458 9.22082 16.2638C6.71588 15.9818 4.0831 15.0118 4.0831 10.6899C4.0831 9.45862 4.52017 8.45289 5.24393 7.66334C5.11704 7.37853 4.73636 6.23181 5.34262 4.67808C5.34262 4.67808 6.28726 4.37542 8.44443 5.83421C9.34677 5.58325 10.3055 5.45918 11.2642 5.45354C12.223 5.45918 13.1817 5.58325 14.0841 5.83421C16.2271 4.37542 17.1718 4.67808 17.1718 4.67808C17.778 6.23181 17.3974 7.37853 17.2846 7.66334C18.0036 8.45289 18.4407 9.45862 18.4407 10.6899C18.4407 15.0231 15.8042 15.9771 13.2945 16.2544C13.6893 16.5928 14.0559 17.2846 14.0559 18.3411C14.0559 19.8506 14.0418 21.0631 14.0418 21.4297C14.0418 21.7258 14.2392 22.0783 14.8172 21.9655C19.3299 20.486 22.5586 16.2563 22.5586 11.2793C22.5586 5.0503 17.5083 0 11.2793 0Z" fill="white"/>
</svg>
